<svg id="Capa_1" enable-background="new 0 0 511.999 511.999" height="512" viewBox="0 0 511.999 511.999" width="512" xmlns="http://www.w3.org/2000/svg"><g><g><path d="m391.109 474.592c-4.187 0-8.001-2.688-9.414-6.626-1.366-3.804-.24-8.229 2.814-10.89 3.203-2.791 7.909-3.242 11.592-1.137 3.569 2.04 5.553 6.235 4.87 10.288-.805 4.766-5.018 8.365-9.862 8.365z"/><path d="m511.794 409.395-.471-5.473c-1.314-15.281-9.029-29.423-21.166-38.8-12.138-9.377-27.77-13.273-42.886-10.688l-140.171 23.964-1.811-2.595 198.029-282.323c1.525-2.174 2.122-4.866 1.66-7.481-.463-2.615-1.946-4.939-4.124-6.459l-50.614-35.333c-2.174-1.518-4.865-2.111-7.479-1.645-2.612.465-4.933 1.95-6.449 4.127l-180.209 258.652-180.416-258.652c-1.517-2.177-3.837-3.662-6.449-4.127-2.614-.465-5.303.126-7.479 1.645l-50.614 35.332c-2.178 1.52-3.661 3.844-4.124 6.459-.462 2.615.135 5.307 1.66 7.481l198.065 281.993-1.959 2.906-140.06-23.945c-15.118-2.585-30.749 1.31-42.886 10.688-12.137 9.377-19.852 23.519-21.166 38.8l-.471 5.473c-2.599 30.208 19.864 56.899 50.071 59.499l146.975 12.644c1.551.133 3.1.199 4.644.199 17.526 0 34.33-8.487 44.686-22.832.04-.056.08-.112.119-.169l9.218-13.343 9.432 13.411c.023.034.048.067.071.101 10.353 14.341 27.146 22.825 44.739 22.825 1.556 0 3.12-.066 4.685-.201l31.993-3.061c5.498-.526 9.528-5.409 9.002-10.907-.525-5.497-5.417-9.523-10.906-9.002l-31.898 3.052c-12.366 1.063-24.078-4.307-31.363-14.364l-82.621-117.485 31.136-26.606 64.146 91.893c2.217 3.176 6.069 4.785 9.886 4.133l146.426-25.033c9.759-1.669 19.451.747 27.286 6.8 7.837 6.055 12.619 14.822 13.469 24.688l.471 5.473c1.65 19.199-12.606 36.165-31.794 37.853l-24.829 1.776c-5.509.394-9.654 5.179-9.261 10.688.395 5.509 5.18 9.654 10.688 9.261l24.906-1.782c.048-.003.096-.007.144-.011 30.205-2.6 52.668-29.291 50.069-59.499zm-64.795-343.06 34.19 23.868-73.212 104.407-2.91-2.486-28.661-24.491zm-82.089 117.78 31.523 26.937-16.1 22.891-31.447-26.873zm-27.527 39.433 31.395 26.827-16.617 23.629-31.317-26.761zm-28.043 40.173 31.265 26.716-16.099 22.891-31.189-26.651zm-27.475 39.478 31.114 26.588-19.89 28.541-24.765-35.477zm-94.371 10.129-16.1-22.891 31.265-26.716 16.023 22.955zm-27.656-39.323-16.617-23.629 31.395-26.827 16.54 23.695zm-28.172-40.062-16.1-22.891 31.523-26.937 16.023 22.955zm-66.666-167.608 70.592 101.297-31.57 26.977-73.212-104.407zm165.306 380.942c-7.287 10.039-19.002 15.394-31.341 14.333l-146.974-12.643c-19.221-1.654-33.513-18.637-31.86-37.858l.471-5.473c.85-9.866 5.632-18.633 13.468-24.688 7.837-6.054 17.527-8.469 27.287-6.8l146.426 25.033c3.874.662 7.779-1.006 9.977-4.266l1.302-1.931 24.594 34.971z"/><path d="m257.456 30.262c-48.386 0-97.367 14.75-97.367 42.942v52.765c0 .646.062 1.277.18 1.889 1.118 8.921 7.903 21.008 32.804 30.148 17.478 6.415 40.343 9.948 64.384 9.948s46.906-3.533 64.383-9.948c24.881-9.133 31.676-21.208 32.802-30.126.12-.618.183-1.257.183-1.91v-52.766c-.002-28.192-48.984-42.942-97.369-42.942zm-58.25 29.006c15.401-5.807 36.089-9.005 58.25-9.005s42.848 3.198 58.25 9.005c14.026 5.289 19.117 11.232 19.117 13.937s-5.091 8.648-19.117 13.937c-15.402 5.807-36.089 9.005-58.25 9.005s-42.849-3.198-58.25-9.005c-14.026-5.289-19.117-11.232-19.117-13.937s5.09-8.649 19.117-13.937zm135.608 65.947c-.584 7.718-28.418 22.739-77.358 22.739-48.941 0-76.775-15.021-77.358-22.739-.003-.036-.006-.071-.009-.106v-24.798c18.737 10.461 48.16 15.835 77.367 15.835s58.63-5.375 77.367-15.835v24.798c-.003.035-.006.071-.009.106z"/></g></g></svg>