<?xml version="1.0" encoding="iso-8859-1"?>
<!-- Generator: Adobe Illustrator 19.0.0, SVG Export Plug-In . SVG Version: 6.00 Build 0)  -->
<svg version="1.1" id="Layer_1" xmlns="http://www.w3.org/2000/svg" xmlns:xlink="http://www.w3.org/1999/xlink" x="0px" y="0px"
	 viewBox="0 0 512 512" style="enable-background:new 0 0 512 512;" xml:space="preserve">
<g>
	<g>
		<path d="M195.01,145.664c-1.418-1.409-3.375-2.22-5.373-2.22c-2.006,0-3.964,0.811-5.384,2.22c-1.41,1.419-2.22,3.376-2.22,5.384
			c0,1.997,0.811,3.954,2.22,5.373c1.418,1.419,3.376,2.23,5.384,2.23c1.998,0,3.955-0.811,5.373-2.23
			c1.41-1.419,2.231-3.376,2.231-5.373C197.241,149.04,196.419,147.083,195.01,145.664z"/>
	</g>
</g>
<g>
	<g>
		<path d="M228.192,145.664c-1.418-1.409-3.375-2.22-5.373-2.22c-2.006,0-3.964,0.811-5.384,2.22c-1.41,1.419-2.22,3.376-2.22,5.384
			c0,1.997,0.811,3.954,2.22,5.373c1.418,1.419,3.376,2.23,5.384,2.23c1.998,0,3.954-0.811,5.373-2.23
			c1.41-1.419,2.23-3.376,2.23-5.373C230.422,149.04,229.601,147.083,228.192,145.664z"/>
	</g>
</g>
<g>
	<g>
		<path d="M261.374,145.664c-1.419-1.409-3.375-2.22-5.373-2.22c-2.006,0-3.964,0.811-5.384,2.22c-1.41,1.419-2.22,3.376-2.22,5.384
			c0,1.997,0.811,3.954,2.22,5.373c1.418,1.419,3.376,2.23,5.384,2.23c1.998,0,3.954-0.811,5.373-2.23
			c1.41-1.419,2.23-3.376,2.23-5.373C263.604,149.04,262.783,147.083,261.374,145.664z"/>
	</g>
</g>
<g>
	<g>
		<path d="M294.555,145.664c-1.419-1.409-3.376-2.22-5.373-2.22c-2.006,0-3.964,0.811-5.384,2.22c-1.41,1.419-2.22,3.376-2.22,5.384
			c0,1.997,0.811,3.954,2.22,5.373c1.418,1.419,3.376,2.23,5.384,2.23c1.998,0,3.954-0.811,5.373-2.23
			c1.41-1.419,2.231-3.376,2.231-5.373C296.786,149.04,295.964,147.083,294.555,145.664z"/>
	</g>
</g>
<g>
	<g>
		<path d="M327.737,145.664c-1.418-1.409-3.375-2.22-5.373-2.22c-2.006,0-3.964,0.811-5.384,2.22c-1.41,1.419-2.22,3.376-2.22,5.384
			c0,1.997,0.811,3.954,2.22,5.373c1.418,1.419,3.376,2.23,5.384,2.23c1.998,0,3.954-0.811,5.373-2.23
			c1.41-1.419,2.231-3.376,2.231-5.373C329.967,149.04,329.146,147.083,327.737,145.664z"/>
	</g>
</g>
<g>
	<g>
		<path d="M228.189,85.362c-1.418-1.409-3.375-2.22-5.373-2.22c-2.006,0-3.964,0.811-5.384,2.22c-1.41,1.419-2.22,3.376-2.22,5.384
			c0,1.997,0.811,3.954,2.22,5.373c1.419,1.419,3.376,2.23,5.384,2.23c1.998,0,3.954-0.811,5.373-2.23
			c1.41-1.419,2.23-3.376,2.23-5.373C230.419,88.738,229.598,86.781,228.189,85.362z"/>
	</g>
</g>
<g>
	<g>
		<path d="M261.37,85.362c-1.418-1.409-3.375-2.22-5.373-2.22c-2.006,0-3.964,0.811-5.384,2.22c-1.41,1.419-2.22,3.376-2.22,5.384
			c0,1.997,0.811,3.954,2.22,5.373c1.419,1.419,3.376,2.23,5.384,2.23c1.998,0,3.954-0.811,5.373-2.23
			c1.41-1.419,2.231-3.376,2.231-5.373C263.601,88.738,262.78,86.781,261.37,85.362z"/>
	</g>
</g>
<g>
	<g>
		<path d="M294.551,85.362c-1.418-1.409-3.375-2.22-5.373-2.22c-2.006,0-3.964,0.811-5.384,2.22c-1.41,1.419-2.22,3.376-2.22,5.384
			c0,1.997,0.811,3.954,2.22,5.373c1.419,1.419,3.377,2.23,5.384,2.23c1.998,0,3.954-0.811,5.373-2.23
			c1.41-1.419,2.23-3.376,2.23-5.373C296.782,88.738,295.96,86.781,294.551,85.362z"/>
	</g>
</g>
<g>
	<g>
		<path d="M228.189,205.965c-1.418-1.409-3.375-2.22-5.373-2.22c-2.006,0-3.964,0.811-5.384,2.22c-1.41,1.419-2.22,3.376-2.22,5.384
			c0,1.997,0.811,3.954,2.22,5.373c1.419,1.419,3.376,2.231,5.384,2.231c1.998,0,3.954-0.811,5.373-2.231
			c1.41-1.419,2.23-3.376,2.23-5.373C230.419,209.341,229.598,207.384,228.189,205.965z"/>
	</g>
</g>
<g>
	<g>
		<path d="M261.37,205.965c-1.418-1.409-3.375-2.22-5.373-2.22c-2.006,0-3.964,0.811-5.384,2.22c-1.41,1.419-2.22,3.376-2.22,5.384
			c0,1.997,0.811,3.954,2.22,5.373c1.419,1.419,3.376,2.231,5.384,2.231c1.998,0,3.954-0.811,5.373-2.231
			c1.41-1.419,2.231-3.376,2.231-5.373C263.601,209.341,262.78,207.384,261.37,205.965z"/>
	</g>
</g>
<g>
	<g>
		<path d="M294.551,205.965c-1.418-1.409-3.375-2.22-5.373-2.22c-2.006,0-3.964,0.811-5.384,2.22c-1.41,1.419-2.22,3.376-2.22,5.384
			c0,1.997,0.811,3.954,2.22,5.373c1.419,1.419,3.377,2.231,5.384,2.231c1.998,0,3.954-0.811,5.373-2.231
			c1.41-1.419,2.23-3.376,2.23-5.373C296.782,209.341,295.96,207.384,294.551,205.965z"/>
	</g>
</g>
<g>
	<g>
		<path d="M210.218,116.262c-1.418-1.409-3.375-2.22-5.373-2.22c-2.006,0-3.964,0.811-5.384,2.22c-1.41,1.419-2.22,3.376-2.22,5.384
			c0,1.997,0.811,3.954,2.22,5.373c1.419,1.419,3.377,2.23,5.384,2.23c1.998,0,3.954-0.811,5.373-2.23
			c1.41-1.419,2.231-3.376,2.231-5.373C212.449,119.638,211.627,117.681,210.218,116.262z"/>
	</g>
</g>
<g>
	<g>
		<path d="M243.4,116.262c-1.418-1.409-3.375-2.22-5.373-2.22c-2.006,0-3.964,0.811-5.384,2.22c-1.41,1.419-2.22,3.376-2.22,5.384
			c0,1.997,0.811,3.954,2.22,5.373c1.419,1.419,3.377,2.23,5.384,2.23c1.998,0,3.954-0.811,5.373-2.23
			c1.41-1.419,2.231-3.376,2.231-5.373C245.63,119.638,244.809,117.681,243.4,116.262z"/>
	</g>
</g>
<g>
	<g>
		<path d="M276.581,116.262c-1.418-1.409-3.375-2.22-5.373-2.22c-2.006,0-3.964,0.811-5.384,2.22c-1.41,1.419-2.22,3.376-2.22,5.384
			c0,1.997,0.811,3.954,2.22,5.373c1.419,1.419,3.377,2.23,5.384,2.23c1.998,0,3.954-0.811,5.373-2.23
			c1.41-1.419,2.231-3.376,2.231-5.373C278.812,119.638,277.991,117.681,276.581,116.262z"/>
	</g>
</g>
<g>
	<g>
		<path d="M309.763,116.262c-1.418-1.409-3.375-2.22-5.373-2.22c-2.006,0-3.964,0.811-5.384,2.22c-1.41,1.419-2.22,3.376-2.22,5.384
			c0,1.997,0.811,3.954,2.22,5.373c1.419,1.419,3.376,2.23,5.384,2.23c1.998,0,3.954-0.811,5.373-2.23
			c1.41-1.419,2.23-3.376,2.23-5.373C311.994,119.638,311.172,117.681,309.763,116.262z"/>
	</g>
</g>
<g>
	<g>
		<path d="M210.218,175.065c-1.418-1.409-3.375-2.22-5.373-2.22c-2.006,0-3.964,0.811-5.384,2.22c-1.41,1.419-2.22,3.376-2.22,5.384
			c0,1.997,0.811,3.954,2.22,5.373c1.418,1.419,3.376,2.23,5.384,2.23c1.998,0,3.954-0.811,5.373-2.23
			c1.41-1.419,2.231-3.376,2.231-5.373C212.449,178.442,211.627,176.485,210.218,175.065z"/>
	</g>
</g>
<g>
	<g>
		<path d="M243.4,175.065c-1.418-1.409-3.375-2.22-5.373-2.22c-2.006,0-3.964,0.811-5.384,2.22c-1.41,1.419-2.22,3.376-2.22,5.384
			c0,1.997,0.811,3.954,2.22,5.373c1.418,1.419,3.376,2.23,5.384,2.23c1.998,0,3.954-0.811,5.373-2.23
			c1.41-1.419,2.231-3.376,2.231-5.373C245.63,178.442,244.809,176.485,243.4,175.065z"/>
	</g>
</g>
<g>
	<g>
		<path d="M276.581,175.065c-1.419-1.409-3.375-2.22-5.373-2.22c-2.006,0-3.964,0.811-5.384,2.22c-1.41,1.419-2.22,3.376-2.22,5.384
			c0,1.997,0.811,3.954,2.22,5.373c1.418,1.419,3.376,2.23,5.384,2.23c1.998,0,3.954-0.811,5.373-2.23
			c1.41-1.419,2.231-3.376,2.231-5.373C278.812,178.442,277.991,176.485,276.581,175.065z"/>
	</g>
</g>
<g>
	<g>
		<path d="M309.763,175.065c-1.419-1.409-3.376-2.22-5.373-2.22c-2.006,0-3.964,0.811-5.384,2.22c-1.41,1.419-2.22,3.376-2.22,5.384
			c0,1.997,0.811,3.954,2.22,5.373c1.418,1.419,3.376,2.23,5.384,2.23c1.998,0,3.954-0.811,5.373-2.23
			c1.41-1.419,2.23-3.376,2.23-5.373C311.994,178.442,311.172,176.485,309.763,175.065z"/>
	</g>
</g>
<g>
	<g>
		<path d="M355.548,37.789C329.37,13.42,294.017,0,256,0s-73.371,13.42-99.548,37.789c-26.769,24.919-41.511,59.224-41.511,96.595
			c0,9.365,0.921,19.065,2.736,28.827c0.768,4.128,4.735,6.857,8.866,6.085c4.128-0.768,6.853-4.737,6.085-8.865
			c-1.646-8.849-2.48-17.611-2.48-26.046C130.148,66.442,184.253,15.208,256,15.208s125.852,51.234,125.852,119.176
			c0,34.468-13.998,72.714-37.444,102.305c-24.967,31.512-56.365,48.866-88.408,48.866c-39.454,0-79.425-27.886-104.316-72.775
			c-2.036-3.673-6.665-5-10.337-2.964c-3.673,2.037-4.999,6.665-2.962,10.337c12.875,23.22,29.921,42.932,49.295,57.004
			c0.184,0.134,31.704,23.717,31.704,111.282v86.753c-5.202,3.67-8.616,9.714-8.616,16.55c0,11.17,9.086,20.256,20.256,20.256
			h49.952c11.169,0,20.256-9.086,20.256-20.256c0-6.836-3.414-12.88-8.616-16.55v-86.774c1.217-72.4,21.229-100.991,30.964-110.643
			c11.706-8.402,22.726-18.997,32.747-31.644c25.506-32.19,40.732-73.965,40.732-111.75
			C397.06,97.013,382.317,62.708,355.548,37.789z M256,300.764c1.716-0.001,3.43-0.057,5.141-0.141
			c-1.987,6.149-3.765,12.763-5.318,19.822c-1.379-5.597-3.261-12.578-5.624-19.868C252.133,300.688,254.068,300.764,256,300.764z
			 M280.977,496.792h-49.952c-2.736,0-5.048-2.312-5.048-5.048c0-2.736,2.312-5.048,5.048-5.048h49.952
			c2.736,0,5.048,2.312,5.048,5.048C286.025,494.48,283.712,496.792,280.977,496.792z M260.035,388.107h-25.444v-10.999
			c0-2.74,2.316-5.056,5.056-5.056h32.704c2.74,0,5.056,2.316,5.056,5.056v94.381h-42.816v-68.174h25.444
			c4.199,0,7.604-3.404,7.604-7.604S264.235,388.107,260.035,388.107z M279.081,358.017c-2.109-0.746-4.368-1.173-6.729-1.173
			h-32.704c-2.361,0-4.62,0.427-6.729,1.173c-2.553-25.728-7.916-47.406-16.037-64.788c5.418,2.104,10.906,3.765,16.43,4.994
			c6.62,18.155,10.316,37.327,10.354,37.526c0.333,1.742,1.263,3.314,2.631,4.443c3.026,2.497,6.361,3.511,9.537,3.511
			c3.726,0,7.235-1.396,9.773-3.431c1.446-1.153,2.437-2.806,2.755-4.663c2.422-14.147,5.67-26.625,9.658-37.189
			c5.756-1.224,11.447-2.923,17.049-5.085C286.975,310.699,281.628,332.342,279.081,358.017z"/>
	</g>
</g>
<g>
	<g>
		<path d="M142.227,192.987c-1.582-3.904-3.032-7.889-4.315-11.846c-1.295-3.996-5.584-6.186-9.578-4.89
			c-3.995,1.295-6.185,5.582-4.89,9.577c1.394,4.3,2.971,8.63,4.687,12.867c1.197,2.957,4.797,6.202,9.902,4.193
			C141.942,201.35,143.803,196.879,142.227,192.987z"/>
	</g>
</g>
<g>
	<g>
		<path d="M256,27.881c-64.522,0-113.178,45.786-113.178,106.503c0,31.706,12.973,67.009,34.703,94.435
			c22.515,28.414,50.384,44.062,78.475,44.062s55.96-15.649,78.474-44.063c21.731-27.426,34.703-62.729,34.703-94.435
			C369.178,73.667,320.522,27.881,256,27.881z M322.555,219.374c-19.568,24.698-43.205,38.3-66.554,38.3s-46.985-13.602-66.555-38.3
			c-19.672-24.827-31.416-56.599-31.416-84.99c-0.001-25.128,9.804-48.192,27.606-64.945c18.057-16.992,43.046-26.35,70.363-26.35
			c27.318,0,52.306,9.358,70.363,26.35c17.802,16.753,27.607,39.817,27.607,64.945C353.97,162.775,342.226,194.547,322.555,219.374z
			"/>
	</g>
</g>
<g>
</g>
<g>
</g>
<g>
</g>
<g>
</g>
<g>
</g>
<g>
</g>
<g>
</g>
<g>
</g>
<g>
</g>
<g>
</g>
<g>
</g>
<g>
</g>
<g>
</g>
<g>
</g>
<g>
</g>
</svg>
