<svg id="Capa_1" enable-background="new 0 0 511.948 511.948" height="512" viewBox="0 0 511.948 511.948" width="512" xmlns="http://www.w3.org/2000/svg"><path d="m217.161 55.578c0 5.549-4.498 10.048-10.048 10.048-5.549 0-10.048-4.498-10.048-10.048s4.498-10.048 10.048-10.048 10.048 4.498 10.048 10.048zm294.786 124.152c-.01 30.01-7.95 60.96-23.62 92.01-14.811 29.32-36.08 57.96-63.24 85.13-18.02 18.02-39.03 32.03-62.45 41.64-11.25 4.61-23.02 8.17-34.979 10.55-11.84 2.37-23.98 3.62-36.061 3.71-23.23.301-46.022-3.57-67.752-11.48-22.637-8.241-48.268-2.237-63.775 14.938-.001 0-.002.001-.002.002l-78.832 88.365c-4.011 4.496-9.765 7.172-15.787 7.344-.206.006-.412.009-.617.009-5.807 0-11.447-2.328-15.562-6.442l-42.829-42.828c-4.26-4.261-6.604-10.158-6.433-16.179.172-6.022 2.849-11.776 7.344-15.787l88.372-78.838c17.172-15.51 23.173-41.136 14.934-63.771-7.91-21.729-11.785-44.248-11.481-67.473.101-12.45 1.351-24.57 3.721-36.4 2.39-11.95 5.939-23.71 10.56-34.96 9.6-23.4 23.61-44.4 41.62-62.41 3.479-3.48 6.99-6.87 10.439-10.08 1.86-1.73 4.28-2.68 6.811-2.68 2.77 0 5.439 1.16 7.32 3.18 1.819 1.96 2.77 4.5 2.68 7.17s-1.22 5.14-3.18 6.96c-3.33 3.11-6.67 6.33-9.92 9.59-31.921 31.92-49.7 74.38-50.051 119.56v.18c.03 2.66 1.07 5.15 2.931 7.02l162.08 162.08c1.89 1.89 4.42 2.93 7.119 2.93h.08c45.17-.35 87.63-18.13 119.561-50.05 25.66-25.66 45.689-52.57 59.52-79.99 14.25-28.24 21.48-56.17 21.48-83-.08-40.68-16.63-77.87-49.19-110.54-32.68-32.56-69.87-49.11-110.54-49.19h-.01c-26.61 0-54.28 7.1-82.27 21.11-1.4.7-2.9 1.06-4.46 1.06-3.82 0-7.25-2.12-8.95-5.53-1.2-2.39-1.391-5.1-.55-7.63.85-2.54 2.63-4.59 5.01-5.79 30.779-15.41 61.479-23.22 91.229-23.22h.28c22.22 0 43.9 4.5 64.44 13.37 21.439 9.26 41.609 23.28 59.96 41.68 18.439 18.39 32.479 38.6 41.739 60.1 8.871 20.59 13.351 42.31 13.311 64.58zm-378.181 138.207 26.551-23.687-37.832-37.833c1.684 8.421 4.008 16.716 6.967 24.844 4.346 11.941 5.697 24.529 4.314 36.676zm69.767 19.527-29.05-29.05-153.816 137.222c-.53.473-.655 1.041-.666 1.433-.012.392.081.965.583 1.467l42.828 42.827c.503.503 1.067.594 1.467.583.393-.011.959-.136 1.433-.666zm27.154 45.032c8.126 2.958 16.422 5.283 24.843 6.967l-37.832-37.833-23.687 26.552c12.147-1.387 24.733-.033 36.676 4.314zm94.425-69.527c-33.632 0-60.994-27.362-60.994-60.995s27.362-60.995 60.994-60.995c33.633 0 60.995 27.362 60.995 60.995s-27.362 60.995-60.995 60.995zm0-20c22.604 0 40.995-18.39 40.995-40.995s-18.391-40.995-40.995-40.995-40.994 18.39-40.994 40.995 18.39 40.995 40.994 40.995z"/></svg>